<svg t="1597135395569" class="icon" viewBox="0 0 1024 1024" version="1.1" xmlns="http://www.w3.org/2000/svg" p-id="7046" width="200" height="200"><path d="M758.272 776.192l-243.2 95.744-256-95.744V296.96l249.856-52.736L758.272 296.96z" fill="#6DACE7" p-id="7047"></path><path d="M512 961.024c-2.56 0-5.12-0.512-7.68-1.536l-358.912-144.896c-7.68-3.072-12.288-10.24-12.288-18.432V260.608c0-9.216 6.656-17.408 15.872-19.456l217.6-48.64 61.952-118.784c3.584-6.656 10.24-10.752 17.92-10.752h136.704c5.632 0 10.752 2.56 14.848 6.656L651.264 128l-29.696 27.136-47.616-52.224H458.24L397.824 219.136c-2.56 5.12-7.68 9.216-13.312 10.24l-210.944 47.616v505.856l338.944 137.216 338.944-137.216V276.992L509.952 200.704l8.704-38.912 356.352 79.872c9.216 2.048 15.872 10.24 15.872 19.456v535.04c0 8.192-5.12 15.36-12.288 18.432l-358.912 144.896c-2.56 1.536-5.12 1.536-7.68 1.536z" fill="#0024A2" p-id="7048"></path><path d="M647.168 647.168H345.6v-39.936h281.6v-78.336H373.248c-11.264 0-19.968-9.216-19.968-19.968V384c0-11.264 9.216-19.968 19.968-19.968h298.496v39.936H393.216v84.992h253.952c11.264 0 19.968 9.216 19.968 19.968v118.272c0 11.264-8.704 19.968-19.968 19.968z" fill="#0024A2" p-id="7049"></path><path d="M534.016 311.296h39.936v388.608h-39.936zM443.904 311.296h39.936v388.608h-39.936zM314.88 719.872h394.24v39.936h-394.24z" fill="#0024A2" p-id="7050"></path></svg>